<svg width="30" height="25" viewBox="0 0 50 50" fill="none" xmlns="http://www.w3.org/2000/svg">
<g clip-path="url(#clip0_115_64)">
<rect width="50" height="50" rx="25" fill="white"/>
<circle cx="25" cy="25" r="25" fill="#DEF4FF"/>
<path d="M25.0648 6.28958C25.3798 6.36458 25.6948 6.39958 26.0148 6.36958C27.5948 6.23458 32.9698 6.17458 35.2898 11.2946C38.0198 17.3346 39.5048 18.9696 37.5998 25.9896C35.6948 33.0096 37.2148 32.7446 38.1998 36.3196L38.2298 36.4246C38.7598 38.3496 37.1998 40.2096 35.2048 40.0446L31.3898 39.7196C31.1148 39.6946 30.8348 39.7146 30.5648 39.7696C28.3948 40.2196 18.0298 42.2746 14.0548 41.2346C12.6948 40.8796 11.5298 40.4496 10.5598 40.0196C8.89984 39.2846 8.37984 37.2146 9.40984 35.7196C9.84484 35.0946 10.1848 34.4096 10.2548 33.7546C10.4648 31.7346 9.05984 29.9146 9.61484 26.4896C10.5398 20.7546 12.2948 21.2846 12.6048 17.7046C12.7848 15.6546 15.8698 4.09458 25.0598 6.28958H25.0648Z" fill="#EB3F3A"/>
<path d="M25.0648 6.28958C25.3798 6.36458 25.6948 6.39958 26.0148 6.36958C27.5948 6.23458 32.9698 6.17458 35.2898 11.2946C38.0198 17.3346 39.5048 18.9696 37.5998 25.9896C35.6948 33.0096 37.2148 32.7446 38.1998 36.3196L38.2298 36.4246C38.7598 38.3496 37.1998 40.2096 35.2048 40.0446L31.3898 39.7196C31.1148 39.6946 30.8348 39.7146 30.5648 39.7696C28.3948 40.2196 18.0298 42.2746 14.0548 41.2346C12.6948 40.8796 11.5298 40.4496 10.5598 40.0196C8.89984 39.2846 8.37984 37.2146 9.40984 35.7196C9.84484 35.0946 10.1848 34.4096 10.2548 33.7546C10.4648 31.7346 9.05984 29.9146 9.61484 26.4896C10.5398 20.7546 12.2948 21.2846 12.6048 17.7046C12.7848 15.6546 15.8698 4.09458 25.0598 6.28958H25.0648Z" fill="#EB3F3A"/>
<path d="M44.895 43.8998C40.755 42.5048 30.41 37.1498 30.41 37.1498L29.77 32.2598H20.71L20.125 37.1498C20.125 37.1498 9.785 42.5048 5.64 43.8998C1.495 45.2948 1.5 52.3648 1.5 52.3648H49.04C49.04 52.3648 49.04 45.2948 44.9 43.8998H44.895Z" fill="#FFB69F"/>
<path d="M25.27 38.6955C28.1115 38.6955 30.415 38.0038 30.415 37.1505C30.415 36.2972 28.1115 35.6055 25.27 35.6055C22.4285 35.6055 20.125 36.2972 20.125 37.1505C20.125 38.0038 22.4285 38.6955 25.27 38.6955Z" fill="#FFB69F"/>
<path d="M20.3198 35.5297C20.3198 35.5297 27.3448 36.1747 29.8198 33.0947V29.5547L20.9148 30.4097L20.3198 35.5297Z" fill="#FF9988"/>
<path d="M25.6901 33.68C31.3537 33.68 35.9451 27.8104 35.9451 20.57C35.9451 13.3295 31.3537 7.45996 25.6901 7.45996C20.0264 7.45996 15.4351 13.3295 15.4351 20.57C15.4351 27.8104 20.0264 33.68 25.6901 33.68Z" fill="#FFB69F"/>
<path d="M35.62 19.3146C35.62 19.3146 37.39 19.0996 37.55 20.7846C37.71 22.4696 37.145 23.7646 36.095 24.3246C36.095 24.3246 35.87 24.4346 35.355 24.5246L35.62 19.3196V19.3146Z" fill="#FFB69F"/>
<path d="M15.6399 19.3146C15.6399 19.3146 13.8699 19.0996 13.7099 20.7846C13.5499 22.4696 14.1149 23.7646 15.1649 24.3246C15.1649 24.3246 15.3899 24.4346 15.9049 24.5246L15.6399 19.3196V19.3146Z" fill="#FFB69F"/>
<path d="M15.4349 19.4351C15.4349 19.4351 14.6899 7.36509 25.6899 7.51009V20.1401L15.4349 19.4351Z" fill="#FFB69F"/>
<path d="M35.9399 19.4351C35.9399 19.4351 36.6849 7.36509 25.6849 7.51009V20.1401L35.9399 19.4351Z" fill="#FFB69F"/>
<path d="M18.6599 17.9403C20.3499 17.6353 21.8449 17.8753 22.6049 18.0203C22.8349 18.0653 23.0649 17.9553 23.1349 17.7653C23.2149 17.5503 23.0649 17.3303 22.8049 17.2803C21.9399 17.1153 20.3849 16.8653 18.7549 17.4353C18.5049 17.5253 18.0599 17.7703 18.1949 17.9653C18.2699 18.0353 18.4349 17.9753 18.6599 17.9353V17.9403Z" fill="#EB3F3A"/>
<path d="M32.8252 17.9455C31.1352 17.6405 29.6402 17.8805 28.8802 18.0255C28.6502 18.0705 28.4202 17.9555 28.3502 17.7655C28.2702 17.5505 28.4202 17.3255 28.6802 17.2755C29.5452 17.1055 31.1002 16.8555 32.7302 17.4355C32.9802 17.5255 33.4252 17.7705 33.2902 17.9705C33.2152 18.0405 33.0502 17.9805 32.8252 17.9405V17.9455Z" fill="#EB3F3A"/>
<path d="M30.5352 21.6195C30.8693 21.6195 31.1402 21.1494 31.1402 20.5695C31.1402 19.9896 30.8693 19.5195 30.5352 19.5195C30.201 19.5195 29.9302 19.9896 29.9302 20.5695C29.9302 21.1494 30.201 21.6195 30.5352 21.6195Z" fill="#441D39"/>
<path d="M21.46 21.4047C21.7941 21.4047 22.065 20.9346 22.065 20.3547C22.065 19.7748 21.7941 19.3047 21.46 19.3047C21.1258 19.3047 20.855 19.7748 20.855 20.3547C20.855 20.9346 21.1258 21.4047 21.46 21.4047Z" fill="#441D39"/>
<path d="M26.3951 25.2899H25.4401C25.0151 25.2899 24.6401 25.1249 24.4401 24.8499C24.2951 24.6549 24.2551 24.4249 24.3251 24.1999C24.5451 23.4799 24.7301 22.7949 24.7301 22.7949C24.7651 22.6599 24.9051 22.5849 25.0351 22.6199C25.1701 22.6549 25.2501 22.7949 25.2101 22.9249C25.2101 22.9249 25.0251 23.6199 24.8001 24.3449C24.7801 24.4199 24.7901 24.4849 24.8401 24.5549C24.9451 24.6949 25.1801 24.7899 25.4401 24.7899H26.3951C26.5351 24.7899 26.6451 24.8999 26.6451 25.0399C26.6451 25.1799 26.5351 25.2899 26.3951 25.2899Z" fill="#FF9988"/>
<path d="M24.2248 28.5448C23.7598 28.5448 23.4548 28.5198 23.4198 28.5148C23.2848 28.5048 23.1798 28.3798 23.1948 28.2448C23.2048 28.1048 23.3298 28.0098 23.4648 28.0148C23.4948 28.0148 26.3148 28.2448 28.4048 27.2148C28.5298 27.1548 28.6798 27.2048 28.7398 27.3298C28.7998 27.4548 28.7498 27.6048 28.6248 27.6648C27.0948 28.4198 25.2598 28.5398 24.2298 28.5398L24.2248 28.5448Z" fill="#FF9988"/>
<path d="M31.035 23.2648C31.9988 23.2648 32.78 23.0858 32.78 22.8648C32.78 22.6439 31.9988 22.4648 31.035 22.4648C30.0713 22.4648 29.29 22.6439 29.29 22.8648C29.29 23.0858 30.0713 23.2648 31.035 23.2648Z" fill="#FF9988"/>
<path d="M20.8549 23.2648C21.8186 23.2648 22.5999 23.0858 22.5999 22.8648C22.5999 22.6439 21.8186 22.4648 20.8549 22.4648C19.8911 22.4648 19.1099 22.6439 19.1099 22.8648C19.1099 23.0858 19.8911 23.2648 20.8549 23.2648Z" fill="#FF9988"/>
<path d="M30.4147 37.1505C30.4147 37.1505 30.2697 35.4705 30.1797 35.3655C27.9247 36.0805 23.6697 36.0005 20.3547 35.2305C20.3547 35.2305 20.0697 36.3505 15.9047 39.2855L9.76471 42.2105L9.19971 52.3655H40.7697L39.7197 41.7705L30.4197 37.1505H30.4147Z" fill="#1C2642"/>
<path d="M29.105 7.07539C29.09 7.05039 29.08 7.02039 29.065 7.00039C28.74 6.46039 23.735 6.24039 23.32 6.37039C22.985 6.47539 18.67 8.96039 17.03 9.91039C16.625 10.1454 16.315 10.5104 16.155 10.9504L12.825 19.9804C12.745 20.1954 12.705 20.4254 12.7 20.6604L12.57 38.8704C12.565 39.9004 12.01 40.5804 13.035 40.6854L17.545 41.2004C18.53 41.3004 19.435 40.6704 19.685 39.7154L20.035 37.7304C20.155 37.2704 20.015 36.9104 20.07 36.3504C20.26 34.4804 17.21 30.1654 17.645 28.8554C18.185 27.2254 18.925 25.4804 19.055 23.2704C19.185 21.0604 17.755 17.1604 19.77 12.4204C21.39 8.61039 25.15 9.37039 26.56 9.81539C26.665 9.85039 26.775 9.87039 26.885 9.88539C26.885 9.88539 34.985 12.3954 35.195 21.4054C35.195 21.4054 35.525 21.9154 35.735 21.3154C37.18 17.1504 35.305 7.97039 29.1 7.08039L29.105 7.07539Z" fill="#EB3F3A"/>
<path d="M35.9298 23.7698C36.1176 23.7698 36.2698 23.6176 36.2698 23.4298C36.2698 23.2421 36.1176 23.0898 35.9298 23.0898C35.7421 23.0898 35.5898 23.2421 35.5898 23.4298C35.5898 23.6176 35.7421 23.7698 35.9298 23.7698Z" fill="white"/>
</g>
<defs>
<clipPath id="clip0_115_64">
<rect width="50" height="50" rx="25" fill="white"/>
</clipPath>
</defs>
</svg>
